Coordinates
version=1
nRows=14
nColumns=24
inDegrees=yes

Units are S.I. units (second, meters, Newtons, ...)
Angles are in degrees.

endheader
time	pelvis_tilt	pelvis_list	pelvis_rotation	pelvis_tx	pelvis_ty	pelvis_tz	hip_flexion_r	hip_adduction_r	hip_rotation_r	knee_angle_r	ankle_angle_r	subtalar_angle_r	mtp_angle_r	hip_flexion_l	hip_adduction_l	hip_rotation_l	knee_angle_l	ankle_angle_l	subtalar_angle_l	mtp_angle_l	lumbar_extension	lumbar_bending	lumbar_rotation
      0.01000000	     61.35894362	     -1.69823632	     -1.55938087	      0.64838465	      1.01445650	     -0.20844460	     10.13844545	     -0.88533055	      9.01337499	    -20.57903851	    -22.20159383	     22.02925451	     50.61244320	     -3.90660439	    -10.21663570	      4.56284996	    -54.37105927	    -11.79216272	     31.17325904	     33.90344521	      0.00000000	      0.00000000	      0.00000000
      0.02000000	     61.35407451	     -1.70189428	     -1.55850343	      0.64839158	      1.01446020	     -0.20843530	     10.14634182	     -0.89359859	      9.00870896	    -20.57257663	    -22.21142176	     22.03052066	     50.62992711	     -3.89913270	    -10.21315358	      4.56363489	    -54.36736995	    -11.79453063	     31.16817869	     33.90536924	      0.00000000	      0.00000000	      0.00000000
      0.03000000	     61.34910737	     -1.70553928	     -1.55800338	      0.64839027	      1.01446371	     -0.20842003	     10.15490800	     -0.90273844	      9.00285558	    -20.56599190	    -22.22205139	     22.03189986	     50.65039637	     -3.89246960	    -10.20936101	      4.56378381	    -54.36363848	    -11.79722110	     31.16236665	     33.90732182	      0.00000000	      0.00000000	      0.00000000
      0.04000000	     61.34407128	     -1.70870266	     -1.55798224	      0.64838745	      1.01446664	     -0.20840225	     10.16321221	     -0.91232382	      8.99536920	    -20.56000292	    -22.23331905	     22.03328331	     50.67459406	     -3.88714522	    -10.20533662	      4.56316348	    -54.35973799	    -11.80025009	     31.15575023	     33.90914427	      0.00000000	      0.00000000	      0.00000000
      0.05000000	     61.33966903	     -1.71121253	     -1.55842207	      0.64839008	      1.01446871	     -0.20838608	     10.17039446	     -0.92182617	      8.98588872	    -20.55536261	    -22.24481403	     22.03444159	     50.70305952	     -3.88385752	    -10.20110559	      4.56162781	    -54.35555157	    -11.80357138	     31.14834794	     33.91059224	      0.00000000	      0.00000000	      0.00000000
      0.06000000	     61.33731888	     -1.71344429	     -1.55904620	      0.64839927	      1.01447194	     -0.20837441	     10.17604608	     -0.93089780	      8.97431899	    -20.55255196	    -22.25589928	     22.03503784	     50.73578571	     -3.88336268	    -10.19672024	      4.55915357	    -54.35101715	    -11.80704932	     31.14033169	     33.91136573	      0.00000000	      0.00000000	      0.00000000
      0.07000000	     61.33843054	     -1.71598744	     -1.55927270	      0.64840436	      1.01447536	     -0.20836702	     10.18003947	     -0.93947259	      8.96084435	    -20.55169924	    -22.26582546	     22.03469281	     50.77207144	     -3.88637540	    -10.19244139	      4.55596996	    -54.34618324	    -11.81046476	     31.13204704	     33.91115205	      0.00000000	      0.00000000	      0.00000000
      0.08000000	     61.34347202	     -1.71891565	     -1.55827205	      0.64839690	      1.01447551	     -0.20835981	     10.18203737	     -0.94751360	      8.94583244	    -20.55268268	    -22.27388204	     22.03307770	     50.81053989	     -3.89333840	    -10.18878217	      4.55255318	    -54.34127120	    -11.81355315	     31.12399621	     33.90967745	      0.00000000	      0.00000000	      0.00000000
      0.09000000	     61.35171180	     -1.72153899	     -1.55524851	      0.64838843	      1.01447689	     -0.20834819	     10.18143635	     -0.95476586	      8.92975953	    -20.55517174	    -22.27954302	     22.03000335	     50.84928700	     -3.90403381	    -10.18627230	      4.54944823	    -54.33668670	    -11.81606115	     31.11678931	     33.90675870	      0.00000000	      0.00000000	      0.00000000
      0.10000000	     61.36171076	     -1.72311545	     -1.54996856	      0.64839393	      1.01448848	     -0.20833065	     10.17796251	     -0.96090106	      8.91322325	    -20.55856721	    -22.28257452	     22.02547872	     50.88611905	     -3.91724986	    -10.18507103	      4.54702895	    -54.33294287	    -11.81780001	     31.11107074	     33.90234160	      0.00000000	      0.00000000	      0.00000000
      0.11000000	     61.37191834	     -1.72364212	     -1.54307929	      0.64840727	      1.01450773	     -0.20830997	     10.17228613	     -0.96582287	      8.89698382	    -20.56210265	    -22.28306642	     22.01971416	     50.91883918	     -3.93078757	    -10.18476164	      4.54537793	    -54.33052926	    -11.81867767	     31.10742801	     33.89651629	      0.00000000	      0.00000000	      0.00000000
      0.12000000	     61.38086835	     -1.72373253	     -1.53578918	      0.64841159	      1.01452109	     -0.20829275	     10.16604618	     -0.96975485	      8.88193219	    -20.56522593	    -22.28136666	     22.01305960	     50.94554166	     -3.94193946	    -10.18456917	      4.54436312	    -54.32981175	    -11.81869888	     31.10629409	     33.88950945	      0.00000000	      0.00000000	      0.00000000
      0.13000000	     61.38700856	     -1.72383073	     -1.52917302	      0.64840542	      1.01452192	     -0.20828413	     10.16130979	     -0.97310798	      8.86894623	    -20.56801347	    -22.27794117	     22.00589903	     50.96487124	     -3.94827281	    -10.18384333	      4.54379922	    -54.33101746	    -11.81793785	     31.10786356	     33.88165994	      0.00000000	      0.00000000	      0.00000000
      0.14000000	     61.38862574	     -1.72372434	     -1.52381103	      0.64840186	      1.01451715	     -0.20828249	     10.15992712	     -0.97629737	      8.85867770	    -20.57128287	    -22.27322162	     21.99854554	     50.97620958	     -3.94829000	    -10.18238496	      4.54352897	    -54.33426889	    -11.81650075	     31.11204824	     33.87338479	      0.00000000	      0.00000000	      0.00000000
